<?xml version="1.0" encoding="utf-8"?>
<!-- Generator: Adobe Illustrator 16.0.4, SVG Export Plug-In . SVG Version: 6.00 Build 0)  -->
<!DOCTYPE svg PUBLIC "-//W3C//DTD SVG 1.1//EN" "http://www.w3.org/Graphics/SVG/1.1/DTD/svg11.dtd">
<svg version="1.1" id="Layer_1" xmlns="http://www.w3.org/2000/svg" xmlns:xlink="http://www.w3.org/1999/xlink" x="0px" y="0px"
	 width="16px" height="16px" viewBox="0 0 16 16" enable-background="new 0 0 16 16" xml:space="preserve">
<circle fill="#6D6E71" cx="8" cy="8" r="8"/>
<g>
	<path fill-rule="evenodd" clip-rule="evenodd" fill="#FFFFFF" d="M12.798,3.792c0,0.129,0,0.241,0,0.351
		c0.011,2.668,0.021,5.335,0.031,8.002c0.001,0.214-0.001,0.214-0.209,0.214c-3.092,0.001-6.183,0.001-9.273,0.003
		c-0.139,0-0.176-0.03-0.176-0.182c0.002-2.756,0.002-5.511,0-8.267c0-0.096,0.024-0.137,0.128-0.135
		C3.687,3.787,4.072,3.791,4.46,3.792c0.081,0,0.1,0.032,0.099,0.107c-0.004,0.238-0.011,0.477,0.11,0.698
		c0.208,0.381,0.559,0.588,1.009,0.556C6.074,5.123,6.36,4.92,6.517,4.577C6.605,4.384,6.607,4.149,6.628,3.93
		C6.637,3.826,6.655,3.79,6.769,3.79c0.829,0.004,1.658,0.004,2.488,0.001C9.363,3.79,9.384,3.833,9.382,3.926
		C9.376,4.164,9.377,4.402,9.503,4.62c0.206,0.357,0.508,0.54,0.925,0.536c0.442-0.003,0.752-0.225,0.923-0.611
		c0.078-0.172,0.07-0.386,0.085-0.582c0.014-0.172,0.005-0.172,0.174-0.172C12,3.792,12.39,3.792,12.798,3.792z M3.878,11.693
		c0.053,0.003,0.084,0.006,0.115,0.006c2.672,0,5.342,0,8.014,0.003c0.096,0,0.122-0.03,0.122-0.122
		c-0.002-1.751-0.002-3.501-0.001-5.25c0-0.102-0.031-0.137-0.139-0.137C9.342,6.195,6.695,6.194,4.048,6.194
		c-0.17,0-0.17,0.001-0.17,0.169c0,1.726,0,3.452,0,5.178C3.878,11.589,3.878,11.636,3.878,11.693z"/>
	<path fill-rule="evenodd" clip-rule="evenodd" fill="#FFFFFF" d="M4.895,3.668C4.9,3.513,4.907,3.358,4.914,3.202
		c0.01-0.234,0.243-0.505,0.521-0.566c0.355-0.08,0.671,0.137,0.773,0.401c0.045,0.119,0.058,0.257,0.058,0.386
		C6.265,3.672,6.26,3.924,6.227,4.171c-0.03,0.226-0.192,0.365-0.398,0.456C5.392,4.82,4.905,4.46,4.91,4.027
		c0.001-0.119,0-0.238,0-0.358C4.905,3.668,4.899,3.668,4.895,3.668z"/>
	<path fill-rule="evenodd" clip-rule="evenodd" fill="#FFFFFF" d="M11.067,3.649c0,0.131-0.004,0.263,0,0.393
		c0.012,0.442-0.529,0.802-0.979,0.561c-0.243-0.13-0.36-0.341-0.368-0.612c-0.004-0.227-0.005-0.454,0.002-0.68
		c0.01-0.395,0.254-0.668,0.642-0.693c0.345-0.022,0.691,0.223,0.704,0.625C11.07,3.378,11.067,3.513,11.067,3.649L11.067,3.649z"/>
	<path fill-rule="evenodd" clip-rule="evenodd" fill="#FFFFFF" d="M8.926,10.144c0.147,0,0.294,0.002,0.442-0.001
		c0.067-0.002,0.093,0.026,0.093,0.091c0,0.258,0,0.518,0.001,0.775c0,0.074-0.029,0.108-0.107,0.108
		c-0.285-0.003-0.573-0.003-0.859,0c-0.083,0-0.126-0.037-0.126-0.119c-0.002-0.246,0-0.494-0.002-0.74
		c0-0.079,0.039-0.115,0.116-0.114C8.632,10.145,8.779,10.144,8.926,10.144z"/>
	<path fill-rule="evenodd" clip-rule="evenodd" fill="#FFFFFF" d="M10.554,10.145c0.14,0,0.279,0.004,0.419-0.002
		c0.077-0.003,0.115,0.027,0.115,0.099c-0.002,0.267-0.006,0.534-0.017,0.8c-0.001,0.026-0.051,0.071-0.079,0.071
		c-0.29,0.006-0.582,0.002-0.873,0.005c-0.069,0-0.107-0.029-0.107-0.097c-0.001-0.263-0.001-0.525,0-0.79
		c0-0.062,0.035-0.088,0.101-0.087C10.26,10.148,10.406,10.145,10.554,10.145L10.554,10.145z"/>
	<path fill-rule="evenodd" clip-rule="evenodd" fill="#FFFFFF" d="M5.453,10.144c0.143,0,0.286,0.003,0.429-0.001
		c0.068-0.003,0.092,0.024,0.092,0.089c-0.001,0.264-0.001,0.525,0,0.788c0,0.068-0.024,0.099-0.098,0.098
		c-0.287-0.004-0.573-0.003-0.859,0c-0.081,0-0.115-0.039-0.115-0.115c0-0.247,0-0.493-0.001-0.74c0-0.081,0.032-0.123,0.122-0.119
		C5.166,10.146,5.309,10.144,5.453,10.144z"/>
	<path fill-rule="evenodd" clip-rule="evenodd" fill="#FFFFFF" d="M8.919,7.896c-0.144,0-0.287-0.002-0.431,0.001
		C8.406,7.9,8.364,7.874,8.365,7.782c0.005-0.242,0.005-0.485,0-0.728C8.364,6.977,8.4,6.941,8.469,6.941
		c0.303-0.002,0.604-0.001,0.907,0c0.066,0,0.086,0.037,0.086,0.1c-0.002,0.253-0.002,0.508,0,0.763
		c0,0.075-0.033,0.094-0.103,0.093C9.213,7.894,9.065,7.896,8.919,7.896z"/>
	<path fill-rule="evenodd" clip-rule="evenodd" fill="#FFFFFF" d="M7.172,10.144c0.12,0,0.238,0.001,0.358,0
		c0.18-0.003,0.178-0.011,0.184,0.183c0.006,0.227-0.012,0.452-0.013,0.679c0,0.079-0.024,0.114-0.109,0.112
		c-0.282-0.004-0.565-0.004-0.848,0c-0.084,0.001-0.113-0.031-0.112-0.112c0.003-0.251,0.003-0.501,0-0.752
		c-0.001-0.079,0.024-0.115,0.111-0.11C6.886,10.148,7.029,10.144,7.172,10.144z"/>
	<path fill-rule="evenodd" clip-rule="evenodd" fill="#FFFFFF" d="M11.063,7.895c-0.331,0-0.65,0.002-0.968-0.002
		c-0.027-0.001-0.08-0.048-0.08-0.073c-0.006-0.267-0.007-0.533-0.001-0.8c0.001-0.024,0.052-0.069,0.08-0.07
		c0.299-0.007,0.597-0.007,0.896-0.011c0.078,0,0.108,0.045,0.108,0.113c-0.001,0.243-0.006,0.486-0.011,0.729
		C11.087,7.815,11.073,7.85,11.063,7.895z"/>
	<path fill-rule="evenodd" clip-rule="evenodd" fill="#FFFFFF" d="M8.928,8.527c0.14,0,0.279,0.003,0.419-0.001
		c0.078-0.002,0.116,0.021,0.115,0.107c-0.004,0.251-0.002,0.502,0,0.752c0,0.066-0.025,0.095-0.092,0.095
		c-0.298,0-0.597,0.001-0.896,0c-0.072,0-0.108-0.037-0.108-0.112c0.001-0.238,0-0.477,0-0.716c0-0.088,0.04-0.128,0.133-0.125
		C8.642,8.531,8.785,8.528,8.928,8.527L8.928,8.527z"/>
	<path fill-rule="evenodd" clip-rule="evenodd" fill="#FFFFFF" d="M7.166,7.896c-0.146,0-0.294-0.002-0.442,0.001
		C6.658,7.898,6.631,7.873,6.631,7.807C6.634,7.549,6.63,7.289,6.636,7.031c0-0.029,0.045-0.083,0.071-0.083
		C7.013,6.941,7.319,6.94,7.625,6.946c0.026,0,0.07,0.053,0.071,0.083C7.702,7.288,7.699,7.546,7.7,7.806
		c0.001,0.076-0.035,0.093-0.104,0.092C7.453,7.894,7.311,7.896,7.166,7.896z"/>
	<path fill-rule="evenodd" clip-rule="evenodd" fill="#FFFFFF" d="M10.556,9.48c-0.145,0-0.288-0.002-0.431,0.001
		c-0.079,0.003-0.117-0.026-0.116-0.109c0.002-0.246,0.001-0.493,0.001-0.739c0-0.074,0.026-0.107,0.105-0.106
		c0.286,0.002,0.574,0.003,0.86-0.001c0.079-0.001,0.108,0.033,0.108,0.103c0.002,0.199-0.001,0.397-0.002,0.597
		c0,0.023-0.007,0.048-0.007,0.071c0.004,0.186,0.004,0.186-0.187,0.185c-0.011,0-0.024,0-0.036,0
		C10.754,9.48,10.654,9.48,10.556,9.48L10.556,9.48z"/>
	<path fill-rule="evenodd" clip-rule="evenodd" fill="#FFFFFF" d="M5.967,8.527c0,0.327,0,0.632,0,0.954c-0.256,0-0.506,0-0.756,0
		C4.91,9.479,4.908,9.479,4.904,9.183C4.9,9.004,4.901,8.825,4.901,8.646c0.001-0.058,0.006-0.118,0.085-0.118
		C5.309,8.527,5.631,8.527,5.967,8.527z"/>
	<path fill-rule="evenodd" clip-rule="evenodd" fill="#FFFFFF" d="M7.165,9.479c-0.14,0-0.279-0.003-0.418,0.001
		C6.67,9.482,6.63,9.462,6.631,9.373c0.004-0.246,0.004-0.493,0-0.739C6.63,8.55,6.666,8.525,6.745,8.525
		c0.282,0.004,0.565,0.004,0.848,0.001C7.667,8.525,7.701,8.55,7.701,8.629c-0.004,0.255-0.002,0.51,0,0.763
		c0,0.068-0.029,0.091-0.095,0.09C7.459,9.479,7.312,9.48,7.165,9.479C7.165,9.48,7.165,9.48,7.165,9.479z"/>
</g>
<g>
</g>
<g>
</g>
<g>
</g>
<g>
</g>
<g>
</g>
<g>
</g>
</svg>
