<?xml version="1.0" encoding="utf-8"?>
<!-- Generator: Adobe Illustrator 16.0.4, SVG Export Plug-In . SVG Version: 6.00 Build 0)  -->
<!DOCTYPE svg PUBLIC "-//W3C//DTD SVG 1.1//EN" "http://www.w3.org/Graphics/SVG/1.1/DTD/svg11.dtd">
<svg version="1.1" id="Layer_1" xmlns="http://www.w3.org/2000/svg" xmlns:xlink="http://www.w3.org/1999/xlink" x="0px" y="0px"
	 width="16px" height="16px" viewBox="0 0 16 16" enable-background="new 0 0 16 16" xml:space="preserve">
<circle fill="#6D6E71" cx="8" cy="8" r="8"/>
<circle fill="#6D6E71" cx="36.602" cy="8" r="8"/>
<g>
	<path fill-rule="evenodd" clip-rule="evenodd" fill="#FFFFFF" d="M9.271,10.463c0.572,0.991,1.139,1.973,1.704,2.953
		c-0.991,0.645-1.682,0.688-2.599,0.065C7.659,13,7.056,12.394,6.511,11.727C5.36,10.317,4.478,8.757,3.889,7.035
		C3.632,6.286,3.46,5.517,3.447,4.718C3.436,4.042,3.685,3.506,4.245,3.122C4.428,2.997,4.617,2.88,4.82,2.748
		c0.576,0.998,1.145,1.981,1.712,2.965c-0.643,0.49-0.606,1.152-0.46,1.817c0.21,0.951,0.674,1.773,1.369,2.458
		c0.303,0.3,0.649,0.531,1.082,0.607C8.782,10.643,9.021,10.588,9.271,10.463z"/>
	<path fill-rule="evenodd" clip-rule="evenodd" fill="#FFFFFF" d="M9.442,10.116C9.506,10.027,9.556,9.9,9.65,9.838
		c0.274-0.181,0.563-0.34,0.852-0.498c0.196-0.108,0.416-0.052,0.527,0.143c0.541,0.927,1.078,1.856,1.61,2.788
		c0.115,0.203,0.05,0.415-0.151,0.536c-0.271,0.161-0.542,0.319-0.815,0.472c-0.211,0.116-0.43,0.059-0.551-0.149
		c-0.533-0.919-1.064-1.841-1.595-2.763C9.492,10.304,9.479,10.227,9.442,10.116z"/>
	<path fill-rule="evenodd" clip-rule="evenodd" fill="#FFFFFF" d="M7.058,5.707C6.872,5.688,6.766,5.584,6.682,5.439
		C6.215,4.626,5.746,3.816,5.278,3.004C5.225,2.912,5.17,2.821,5.12,2.728C5.002,2.509,5.059,2.294,5.273,2.167
		c0.261-0.155,0.524-0.307,0.79-0.456c0.233-0.131,0.443-0.072,0.58,0.162c0.356,0.613,0.709,1.228,1.064,1.841
		c0.167,0.29,0.335,0.578,0.5,0.868c0.142,0.25,0.085,0.457-0.164,0.603c-0.25,0.146-0.499,0.292-0.751,0.432
		C7.22,5.657,7.136,5.678,7.058,5.707z"/>
</g>
<g>
</g>
<g>
</g>
<g>
</g>
<g>
</g>
<g>
</g>
<g>
</g>
</svg>
