<?xml version="1.0" encoding="utf-8"?>
<!-- Generator: Adobe Illustrator 16.0.4, SVG Export Plug-In . SVG Version: 6.00 Build 0)  -->
<!DOCTYPE svg PUBLIC "-//W3C//DTD SVG 1.1//EN" "http://www.w3.org/Graphics/SVG/1.1/DTD/svg11.dtd">
<svg version="1.1" xmlns="http://www.w3.org/2000/svg" xmlns:xlink="http://www.w3.org/1999/xlink" x="0px" y="0px"
	 width="133.333px" height="80px" viewBox="0 0 133.333 80" enable-background="new 0 0 133.333 80" xml:space="preserve">
<g id="Layer_1">
</g>
<g id="Layer_2">
	<g>
		<g>
			<defs>
				<rect id="SVGID_1_" x="4.533" y="6.5" width="124.266" height="67"/>
			</defs>
			<clipPath id="SVGID_2_">
				<use xlink:href="#SVGID_1_"  overflow="visible"/>
			</clipPath>
			<path clip-path="url(#SVGID_2_)" fill="#FFFFFF" d="M116.291,9.996c0,0-0.205,2.951-0.534,4.084
				c1.35-1.977,2.051-3.563,2.243-4.561c0.243-1.23-0.094-2.62-0.818-2.882c-0.355-0.107-0.9-0.25-1.45,0.002
				c-0.547,0.246-1.104,0.895-0.904,1.89C115.125,9.998,116.291,9.996,116.291,9.996L116.291,9.996z"/>
			<path clip-path="url(#SVGID_2_)" fill="#FFFFFF" d="M29.214,40.786c-0.384,0.774-0.843,1.587-1.333,2.283
				c-0.32,0.452-0.585,0.824-0.916,1.262c-0.163,0.217-1.644,2.444-3.777,2.268c-0.887-1.366-0.005-3.489,0.608-4.778
				c0.367-0.782,0.709-1.525,1.137-2.148c0.756-1.113,1.186-1.743,1.809-2.5c0.56-0.677,1.289-1.49,1.875-2.213
				c0.41,0.532,0.043,1.521,0.199,2.213c0.357,0.555,0.809,1.019,1.344,1.392C29.971,39.451,29.598,40.011,29.214,40.786
				L29.214,40.786z M47.452,40.917c0.291-0.535,0.652-1.284,1.003-1.8c0.105-0.15,0.322-0.458,0.392-0.579
				c0.15-0.23,0.278-0.391,0.417-0.601c0.31-0.489,0.689-0.981,1.067-1.521c0.015-0.021,0.099-0.134,0.113-0.147
				c0.033-0.018,0.178-0.291,0.197-0.324l0.139-0.198c0.233-0.338,0.126-0.355,0.42-0.654c0.013,1.693-0.611,4.563-1.339,6.036
				c-0.304,0.623-1.145,2.23-2.278,1.94c-0.328-0.09-0.726-0.701-0.737-0.973C46.837,41.828,47.28,41.237,47.452,40.917
				L47.452,40.917z M34.312,45.98c0.355-0.381,0.693-0.856,0.942-1.177c1.313-1.704,2.232-3.443,3.417-5.063
				c0.632-0.865,1.227-1.771,1.857-2.557c0.646-0.804,0.786-1.485,1.696-1.332c0.052,0.941-0.345,1.197-0.782,2.467
				c-0.062,0.177-0.142,0.24-0.339,0.677c-0.893,1.966-2.249,5.179-1.693,6.016c0.256,0.384,0.961,1.033,1.742,1.037
				c0.248,0.003,0.982-0.122,1.206-0.208c0.331-0.124,0.681-0.384,0.896-0.549c0.356-0.28,0.439-0.342,0.648-0.562
				c0.243-0.248,0.604-0.446,0.804-0.623c0.725,1.149,1.953,2.394,3.617,2.36c1.044-0.027,1.508-0.252,2.061-0.699
				c0.227-0.185,0.484-0.458,0.62-0.62c0.065-0.074,0.309-0.37,0.395-0.495c0.169-0.253,0.211-0.373,0.341-0.546
				c0.184-0.243,0.273-0.533,0.404-0.76c1.155-2.043,1.902-4.36,2.682-6.796c0.282-0.894,0.674-2.021,0.869-2.84
				c0.156-0.67,0.326-1.204,0.582-2.202c0.075-0.283,0.162-0.606,0.223-0.916c0.062-0.31,0.178-0.84,0.235-1.131
				c0.109-0.532,0.261-1.08,0.382-1.692c0.182-0.924,0.348-1.398,0.596-2.253c0.26-0.898,0.297-0.898,0.379-1.075
				c0.017-0.044,0.114-0.179,0.151-0.231c0.157-0.224,0.287-0.411,0.4-0.623c0.604-1.133,0.934-1.061,0.741-1.946
				c-0.718-0.246-1.402-0.562-2.416-0.412c-1.198,1.613-2.12,3.422-3.147,5.193c-0.43,0.751-0.967,1.648-1.342,2.297
				c-0.072,0.118-0.81,1.392-0.881,1.515c-1.008,1.781-1.428,2.334-2.54,3.96c-1.141,1.684-2.143,3.415-3.282,5.061
				c-0.271,0.399-0.63,0.768-0.935,1.183c-0.269,0.347-0.493,0.93-1.007,0.969c0.265-0.977,0.79-1.97,1.208-2.702
				c0.333-0.601,0.579-1.189,0.866-1.809c0.576-1.22,1.169-2.333,1.677-3.603c0.499-1.245,1.12-2.585,1.074-4.158
				c-0.528-0.89-2.105,0.083-2.751,0.488c-0.794,0.495-1.346,1.049-1.875,1.524c-0.625,0.559-1.282,1.065-1.808,1.591
				c-0.619,0.625-1.054,1.34-1.676,1.665c0.164-0.573,0.569-1.306,0.735-2.084c0.144-0.64,0.309-1.657-0.131-2.005
				c-0.85-0.678-2.3,0.812-2.815,1.312c-0.627,0.619-1.211,1.309-1.74,1.945c-0.6,0.718-0.882,1.226-1.745,1.389
				c-0.262-0.216-0.819-0.126-0.939-0.488c0.035-0.718,0.04-1.793-0.334-2.29c-0.716-0.533-1.629-0.166-2.343-0.345
				c-0.154-0.033-0.412-0.18-0.608-0.277c-0.396-0.198-0.548-0.279-0.937-0.342c-0.555-0.107-0.828-0.086-1.473,0
				c-2.607,1.381-4.872,3.458-6.573,5.678c-0.877,1.154-1.797,2.482-2.277,3.885c-0.101,0.301-0.054,0.056-0.337,0.901
				c-0.363,1.11-0.583,2.426-0.666,3.538c-1.234,1.655-3.039,3.843-4.961,5.057c-0.703,0.453-1.572,0.98-2.345,1.04
				c-0.714,0.062-1.452-0.453-1.812-0.894c-0.675-0.846-0.912-2.014-0.801-3.541c0,0,3.96-22.57,22.182-35.493
				c0.748-0.413,1.085-0.5,1.675-0.693c0.213-0.043,0.687-0.09,1.142-0.075c0.442,0.463,0.867,1.174,0.671,2.084
				c-1.937,1.806-3.993,3.597-3.419,7.9c0.006,0.053,0.111,0.262,0.405,0.485c0.101,0.03,0.527,0.654,1.803-0.138
				c0.189-0.117,0.263-0.264,0.407-0.348c0.385-0.21,0.617-0.631,0.935-1.039c0.253-0.321,0.517-0.622,0.736-0.97
				c0.484-0.744,1.125-1.746,1.342-2.634c0.036-0.146,0.097-0.215,0.136-0.352c0.168-0.575,0.106-0.835,0.208-1.499
				c0.037-0.229,0.18-0.566,0.196-0.785c0.012-0.257-0.038-0.497-0.043-0.774c-0.005-0.24,0.009-0.475-0.022-0.82
				c-0.108-1.193-0.785-2.26-1.476-2.845c-0.372-0.307-0.847-0.659-1.277-0.829c-2.833-1.126-6.656-0.484-8.979,0.829
				c-1.189,0.675-2.224,1.397-3.25,2.172c-1.058,0.801-2.116,1.695-3.051,2.546c-0.271,0.249-0.95,0.73-1.07,0.968
				c-0.056,0.106-0.075,0.074-0.138,0.137c-0.879,0.931-1.174,1.203-2.487,2.853c-0.49,0.609-0.867,1.156-1.609,2.166
				c-0.592,0.802-1.296,1.926-1.734,2.821c-0.055,0.109-0.158,0.274-0.215,0.399c-0.052,0.101-0.158,0.321-0.214,0.427
				c-0.126,0.258-0.268,0.466-0.374,0.687c-1.125,2.288-1.786,3.625-2.489,5.562c-0.352,0.98-0.753,1.968-1.139,2.906
				c-0.406,0.994-0.68,1.928-0.997,2.913c-0.236,0.726-0.426,1.352-0.625,2.139c-0.137,0.562-0.203,0.884-0.296,1.299
				c-0.139,0.62-0.162,0.63-0.219,0.977c-0.086,0.505-0.118,0.871-0.239,1.65c-0.029,0.18-0.041,0.377-0.062,0.564
				c-0.101,0.832-0.176,1.341-0.234,2.107c-0.274,3.669,0.015,6.264,1.809,8.181c0.858,0.916,2.146,1.079,3.686,0.901
				c1.087-0.125,1.991-0.382,3.181-0.83c0.921-0.342,1.8-1.006,2.585-1.595c0.528-0.399,0.593-0.499,0.948-0.82
				c0.35-0.317,0.996-0.917,1.191-1.136c0.558-0.621,0.57-0.788,0.876-1.168c0.711,0.802,1.676,1.972,2.814,2.221
				c1.206,0.267,2.005-0.145,2.819-0.557c0.19-0.101,0.743-0.327,0.899-0.426c0.291-0.172,0.55-0.444,0.836-0.649
				c0.76-0.542,1.012-0.715,1.628-1.307c0.475-0.454,0.787-0.938,1.121-1.362c0.093-0.117,0.241-0.219,0.337-0.342
				c0.653-0.851,1.135-1.804,1.543-2.772c0.585-1.408,1.275-2.776,1.607-4.163c0.859-0.497,1.973-1.102,2.749-1.459
				c-1.32,2.816-2.679,5.594-3.487,8.945c0.108,0.469,0.161,0.987,0.469,1.25C33.187,47.037,33.673,46.668,34.312,45.98
				L34.312,45.98z"/>
			<path clip-path="url(#SVGID_2_)" fill="#FFFFFF" d="M118.202,31.427c-0.295,0.558-0.571,0.877-1.081,1.309
				c-0.36,0.31-0.413,0.458-0.88,0.622c-0.233,0.08-0.548,0.327-0.936,0.197c-2.023-0.654,0.347-2.713,1.422-3.452
				c0.316-0.219,0.62-0.51,0.812-0.625c0.197-0.114,0.389-0.21,0.54-0.274h0.197C118.27,30.111,118.239,30.52,118.202,31.427
				L118.202,31.427z M94.65,23.397c0.275-0.466,0.516-0.688,0.876-1.173c0.575-0.778,1.7-1.528,2.55-1.512
				c0.15,0,0.369,0.066,0.409,0.207c0.227,0.799-0.215,1.217-1.429,3.112c-0.261,0.407-0.636,0.705-1.007,1.04
				c-0.464,0.415-0.497,0.476-0.811,0.687c-0.373,0.251-0.373,0.245-1.278,0.547c-0.404,0.133-0.521,0.155-0.864,0.134
				C93.428,25.399,94.097,24.334,94.65,23.397L94.65,23.397z M123.389,26.044c-0.079-1.117-0.429-2.274-0.515-3.469
				c-0.047-0.523-0.04-0.996-0.058-1.587c-0.033-0.668,0.046-1.181,0.141-1.809c0.141-0.99,0.46-2.479,0.686-3.396
				c0.283-1.16,0.673-3.048,0.224-4.021c-0.167-0.362-1.268-1.289-1.742-1.188c-0.303,0.065-0.713,0.871-0.943,1.244
				c-0.251,0.406-0.459,0.679-0.676,0.966c-0.443,0.595-0.784,1.189-1.145,1.728c-0.139,0.212-0.272,0.383-0.423,0.581
				c-0.147,0.211-0.473,0.688-0.539,0.777c-0.763,1.052-1.156,1.728-1.671,2.581c-0.211,0.335-0.428,0.636-0.611,0.896
				c-0.409,0.593-0.718,1.21-1.153,1.798c-0.329,0.445-0.557,0.839-0.857,1.215c-0.113,0.134-0.355,0.475-0.384,0.516
				c-0.397,0.517-0.554,0.73-0.85,1.098c-0.147,0.188-0.232,0.384-0.402,0.628c-0.717,0.998-1.518,1.899-2.225,2.896
				c-0.555,0.781-1.18,1.545-1.759,2.351c-0.545,0.767-1.055,1.791-2.085,1.998c-0.115-0.696,0.343-1.209,0.475-1.73
				c0.027-0.078,0.361-0.758,0.382-0.8c0.26-0.578,0.236-0.489,0.501-1.066c0.53-1.125,1.248-2.15,1.826-3.251
				c0.433-0.817,0.974-1.659,1.353-2.422c0.076-0.146,0.185-0.283,0.259-0.43c0.059-0.13,0.144-0.265,0.212-0.394
				c0.154-0.269,0.248-0.556,0.409-0.833c0.521-0.891,1.08-2.044,1.422-2.969c0.233-0.612,0.078-0.694-0.125-1.117
				c-0.256-0.548-0.837-0.968-1.607-1.115c-0.774-0.143-1.697,0.02-2.541,0.06c0.41-0.76,1.213-3.89-0.584-3.753
				c-0.227,0.019-0.696,0.312-0.875,0.484c-0.309,0.301-0.654,0.885-0.951,1.381c-0.289,0.494-0.557,1.076-0.807,1.593
				c-0.09,0.183-0.128,0.275-0.177,0.359c-0.023,0.051-0.104,0.216-0.163,0.329c-0.402,0.794-0.829,1.604-1.216,2.352
				c-0.79,1.513-1.751,3.074-2.57,4.491c-1.528,2.633-2.929,4.845-4.532,7.33c-0.545,0.844-1.233,1.828-2.027,2.688
				c-0.477,0.523-1.892,2.047-2.823,1.929c-0.722-0.085-0.987-1.357-0.926-2.427c0.048-0.761,0.243-1.442,0.543-1.803
				c0.258-0.302,0.298-0.286,0.741-0.55c0.301-0.178,0.656-0.211,0.942-0.344c0.948-0.441,1.683-0.912,2.494-1.444
				c1.14-0.757,2.443-1.703,3.155-2.894c0.318-0.519,0.527-0.958,0.747-1.594c0.14-0.38,0.32-0.788,0.41-1.17
				c0.341-1.457,0.515-4.263-0.982-4.514c-0.924-0.16-1.967,0.247-2.946,0.604c-0.562,0.208-1.386,0.468-1.717,0.84
				c-0.154,0.173-0.18,0.141-0.597,0.479c-0.32,0.253-0.533,0.461-0.851,0.745c-0.745,0.682-1.105,1.139-1.685,2.003
				c-0.307,0.454-0.711,0.909-0.947,1.382c-0.263,0.522-0.423,1.098-0.681,1.657c-0.25,0.565-0.478,1.15-0.677,1.731
				c-0.82,2.41-1.529,5.044-1.721,7.757c-0.589,0.635-1.189,1.264-1.816,1.861c-0.584,0.569-1.219,1.357-2.285,1.375
				c-0.214-0.339-0.287-0.604-0.104-1.111c-0.114,0.311,0.151-0.422,0.18-0.62c0.036-0.278,0.217-0.625,0.337-0.968
				c0.378-1.064,0.861-2.037,1.158-2.977c0.879-1.582,1.64-3.519,2.644-5.53c1.081-2.181,2.708-3.714,3.312-6.292
				c0.214-0.893,0.172-1.989-0.523-2.152c-0.817-0.194-1.142,0.294-1.475,0.684c-0.643,0.737-1.178,1.478-1.692,2.281
				c-0.18,0.289-0.418,0.549-0.603,0.826c-0.812,1.183-1.515,2.309-2.299,3.455c-0.374,0.542-0.727,1.325-1.48,1.378
				c-0.092-0.821,0.311-1.525,0.614-2.355c0.219-0.587,0.72-1.951,0.552-2.769c-0.098-0.456-0.59-0.824-1.075-0.837
				c-0.435-0.01-0.709,0.144-0.923,0.3c-0.112,0.09-0.284,0.259-0.349,0.319c-0.441,0.392-0.881,1.018-1.281,1.592
				c-0.214,0.298-0.074,0.094-0.498,0.687c-0.059,0.084-0.195,0.282-0.245,0.344c-0.148,0.17-0.19,0.25-0.276,0.412
				c-0.037,0.081-0.147,0.209-0.199,0.277c-0.373,0.586-0.757,1.239-1.148,1.8c-0.396,0.576-0.807,1.277-1.481,1.445
				c-0.131-0.725,0.36-1.346,0.615-1.938c0.273-0.628,0.632-1.209,0.875-1.801c0.629-1.5,0.779-1.593,0.885-2.416
				c0.088-0.642,0.025-1.299-0.528-1.388c-0.732-0.124-1.589,1.034-2.014,1.579c-0.619,0.784-1.329,1.668-1.756,2.352
				c-0.166,0.266-0.252,0.336-0.405,0.552c-0.846,1.154-1.728,2.438-2.434,3.593c-1.054,1.716-2.199,3.471-3.245,5.043
				c-0.199,0.305-0.395,0.604-0.535,0.833c-0.227,0.343-0.352,0.622-0.548,0.896c-0.5,0.709-1.039,1.566-1.813,1.722
				c-0.224-0.217-0.372-0.315-0.334-0.557c0.065-0.401,0.197-0.529,0.486-1.033c0.217-0.375,0.344-0.554,0.597-1.032
				c0.192-0.377,0.434-0.703,0.608-1.044c1.025-2.029,1.042-2.085,1.56-3.109c0.401-0.797,0.751-1.643,1.086-2.422
				c0.482-1.115,1.225-2.244,1.156-3.668c-1.242-0.808-2.994-0.281-3.555,0.742c-0.101,0.184-0.315,0.653-0.224,0.505
				c-0.221,0.358-0.338,0.598-0.454,0.812c-0.637,1.146-1.172,2.454-1.761,3.521c-0.146,0.273-0.328,0.544-0.475,0.833
				c-0.305,0.593-0.565,1.217-0.877,1.796c-0.153,0.271-0.39,0.684-0.539,0.958c-0.77,1.445-1.594,2.722-2.505,3.95
				c-0.38,0.507-0.862,1.062-1.483,1.175c-0.352-1.19,0.297-2.327,0.69-3.326c0.207-0.525,0.384-1.08,0.613-1.597
				c0.22-0.515,0.379-0.744,0.579-1.229c0.118-0.273,0.387-0.84,0.503-1.109c0.182-0.393,0.312-0.679,0.477-1.054
				c0.174-0.381,0.353-0.717,0.541-1.104c0.484-0.992,1.041-1.948,1.423-2.975c-0.448-0.486-1.057-0.8-2.072-0.702
				c-0.716,0.261-0.981,0.704-1.418,1.45c-0.773,1.313-1.37,2.759-1.964,4.147c-0.929,2.158-1.79,4.354-2.449,6.498
				c-0.349,1.158-1.256,3.238-0.424,4.513c0.163,0.245,0.312,0.29,0.268,0.278c1.22,0.246,2.125,0.066,3.217-0.607
				c0.739-0.457,0.72-0.522,1.077-0.826c0.739-0.621,1.236-1.506,1.958-2.145c0.32,0.804,0.674,2.011,1.526,2.303
				c0.688,0.229,1.199,0.255,2.018-0.41c0.754-0.61,1.408-1.477,1.952-2.209c0.734-0.966,1.396-2.088,1.963-3.104
				c0.087-0.169,0.149-0.266,0.203-0.416c0.04-0.117,0.204-0.354,0.234-0.406c0.397-0.738,0.664-1.223,1.118-1.947
				c0.349-0.556,0.391-0.752,0.674-0.621c-0.415,1.811-1.223,3.314-1.835,4.917c-0.209,0.532-0.506,1.059-0.478,1.659
				c0.482,0.411,1.328,0.535,1.939,0.36c0.572-0.163,0.573-0.234,1.146-0.965c0.459-0.585,0.732-1.265,1.145-1.865
				c0.635-0.917,1.285-1.881,1.892-2.698c0.232-0.306,0.386-0.658,0.607-0.965c0.431-0.589,0.885-1.183,1.421-1.656
				c-0.04,0.679-0.409,1.239-0.617,1.798c-0.228,0.617-0.431,1.198-0.677,1.798c-0.468,1.134-1.751,3.552-1.227,3.735
				c0.786,0.274,1.804,0.405,2.547,0.083c1.177-1.932,2.322-3.911,3.446-5.804c0.381-0.64,0.792-1.222,1.217-1.863
				c0.07-0.104,0.564-0.71,0.876-0.622c-0.011,0.516-0.181,0.963-0.295,1.258c-0.062,0.184-0.129,0.447-0.189,0.614
				c-0.073,0.222-0.236,0.451-0.335,0.691c-0.326,0.795-0.631,1.568-0.95,2.349c-0.606,1.479-1.54,3.529-0.962,5.339
				c0.275,0.873,2.219,0.377,3.08,0.082c1.221-0.419,2.264-1.077,3.244-1.787c0.403-0.295,0.707-0.766,1.26-0.823
				c0.532-0.052,1.213,0.352,1.875,0.425c0.34,0.036,0.833,0.137,1.226,0.102c0.424-0.027,0.81-0.156,1.119-0.226
				c0.324-0.079,0.375-0.062,0.942-0.341c0.688-0.347,1.386-0.833,1.877-1.309c0.119-0.107,0.335-0.271,0.454-0.393
				c0.224-0.217,0.358-0.356,0.565-0.574c0.36-0.401,0.516-0.611,1.001-1.245c0.226-0.281,0.462-0.535,0.684-0.828
				c0.203-0.273,0.472-0.606,0.601-0.822c0.263-0.433,0.697-0.946,0.959-1.309c1.043-1.444,1.272-1.714,1.877-2.637
				c0.213-0.316,0.393-0.537,0.753-1.112c0.822-1.31,1.392-2.338,2.166-3.873c0.042-0.078,0.482-0.807,0.547-0.951
				c0.64-1.409,0.53-1.19,0.936-1.94c0.425-0.806,0.491-0.86,1.293-2.369c0.163-0.296,0.359-0.835,0.6-1.089
				c0.442-0.447,1.693-0.181,1.742,0.495c0.032,0.441-0.358,0.778-0.532,1.182c-2.017,4.248-4.895,8.17-5.778,13.209
				c-0.025,0.141,0.072,0.581,0.134,0.689c0.314,0.578,0.921,0.778,1.467,0.844c0.596,0.067,1.576,0.113,2.076,0.008
				c0.761-0.163,0.929-0.198,1.813-0.753c0.759-0.471,1.422-1.113,2.023-1.789c0.207-0.234,0.409-0.515,0.609-0.765
				c0.635-0.777,1.153-1.626,1.682-2.487c1.071-1.727,2.228-3.419,3.313-5.042c0.474-0.699,0.933-1.492,1.353-2.14
				c0.095-0.15,0.365-0.474,0.425-0.553c0.2-0.283,0.258-0.409,0.449-0.691c0.154-0.226,0.371-0.535,0.473-0.676
				c0.261-0.375,0.655-0.678,0.682-0.845c-0.145,1.024-0.731,5.142-0.982,7.968c-1.555,0.605-2.978,1.323-4.17,2.338
				c-1.61,1.375-2.306,3.57-1.936,5.269c0.036,0.163,0.142,0.445,0.212,0.609c0.038,0.07,0.043,0.145,0.083,0.216
				c0.461,0.778,1.648,1.034,2.611,0.911c0.783-0.099,1.068-0.244,1.521-0.429c0.487-0.205,0.748-0.316,1.193-0.585
				c0.175-0.1,0.559-0.229,0.837-0.412c0.046-0.029,0.483-0.295,0.516-0.323c0.085-0.052,0.409-0.414,0.409-0.414l0.466-0.416
				c0,0,0.481-0.628,0.44-0.589c0.042-0.048-0.133,0.188,0.062-0.064c0.867-1.104,1.612-2.147,2.167-3.522
				c0.208-0.524,0.432-1.015,0.541-1.392L123.389,26.044L123.389,26.044z"/>
			<path clip-path="url(#SVGID_2_)" fill="#FFFFFF" d="M122.662,25.433c0.361,0.122,0.661,0.245,0.982,0.382
				c0.317,0.133,0.625,0.276,0.934,0.428c0.615,0.305,1.218,0.642,1.796,1.053c0.576,0.404,1.137,0.883,1.606,1.502
				c0.233,0.309,0.438,0.66,0.588,1.046c0.146,0.387,0.23,0.812,0.231,1.232c0.005,0.854-0.314,1.622-0.707,2.234
				c-0.395,0.623-0.875,1.141-1.373,1.606c-0.5,0.468-1.025,0.88-1.566,1.268c-0.134,0.1-0.271,0.191-0.406,0.283l-0.203,0.143
				l-0.223,0.138c-0.127,0.08-0.301,0.177-0.453,0.26c-0.154,0.083-0.296,0.155-0.447,0.234c-2.367,1.156-4.779,2.023-7.216,2.857
				c-2.434,0.819-4.892,1.559-7.363,2.248c-4.94,1.378-9.926,2.547-14.939,3.594c-5.012,1.039-10.049,1.944-15.103,2.754
				c-2.523,0.404-5.056,0.785-7.579,1.156c-2.53,0.368-5.051,0.751-7.574,1.142c-5.044,0.783-10.081,1.61-15.1,2.521
				c-5.02,0.912-10.021,1.922-14.963,3.132c-2.473,0.61-4.929,1.277-7.331,2.065c-1.204,0.396-2.389,0.829-3.545,1.316
				c-1.156,0.491-2.276,1.043-3.317,1.7l0,0.001l-0.09-1.053l7.225,2.601v0.001l0.911,0.421l-0.373,0.839l-3.583,8.082l0,0
				l-0.794-0.76c1.946-0.813,3.892-1.503,5.864-2.174c1.964-0.673,3.944-1.289,5.928-1.884c1.993-0.59,3.986-1.171,5.986-1.696
				l1.504-0.4l1.507-0.385c1.005-0.25,2.006-0.519,3.014-0.749c2.021-0.476,4.034-0.958,6.061-1.387
				c1.012-0.219,2.022-0.447,3.037-0.653l3.046-0.611l1.526-0.303l1.525-0.283l3.059-0.555c2.037-0.371,4.083-0.686,6.125-1.027
				l6.12-1.008c2.033-0.37,4.067-0.706,6.095-1.108l3.043-0.586l3.04-0.625c1.013-0.201,2.021-0.418,3.032-0.641
				c1.007-0.219,2.02-0.431,3.027-0.664l3.022-0.69l3.016-0.718c2.011-0.489,4.013-0.986,6.012-1.511
				c2.004-0.516,3.997-1.061,5.986-1.615c1.991-0.565,3.977-1.138,5.948-1.755h0.001c0.094-0.028,0.195,0.021,0.224,0.117
				c0.029,0.092-0.022,0.435-0.117,0.466c-1.972,0.635-2.995,0.985-4.981,1.568c-1.991,0.572-4.141,1.133-6.141,1.668
				c-1.998,0.544-4.003,1.062-6.007,1.565l-3.735,0.905l-2.981,0.719c-1.004,0.244-2.056,0.461-3.063,0.693
				c-1.012,0.228-2.023,0.379-3.035,0.589l-2.996,0.688l-3.126,0.575c-2.024,0.422-4.066,0.778-6.102,1.168l-6.156,0.979
				c-2.034,0.359-4.075,0.687-6.104,1.073l-3.043,0.581l-1.521,0.294l-1.517,0.316l-3.032,0.628
				c-1.01,0.218-2.016,0.457-3.025,0.681c-2.015,0.438-4.02,0.944-6.025,1.427c-1.003,0.246-2,0.516-2.997,0.771l-1.5,0.393
				l-1.491,0.419c-1.991,0.546-3.971,1.13-5.939,1.734c-1.972,0.606-3.937,1.239-5.881,1.916c-1.94,0.678-3.888,1.395-5.754,2.185
				L21.855,73.5l0.512-1.312l0-0.002l2.869-8.368l0.534,1.268l0-0.001l-6.93-3.306l-1.077-0.515l0.986-0.542h0
				c1.124-0.706,2.305-1.28,3.501-1.778c1.196-0.503,2.414-0.941,3.641-1.341c2.451-0.792,4.934-1.451,7.423-2.056
				c4.985-1.208,10.011-2.172,15.038-3.101c5.034-0.924,10.076-1.76,15.123-2.558c2.524-0.396,5.053-0.785,7.58-1.156
				c2.529-0.378,5.045-0.759,7.564-1.172c5.029-0.842,10.043-1.782,15.025-2.854c4.982-1.078,9.934-2.281,14.827-3.684
				c2.444-0.702,4.875-1.448,7.273-2.282c2.389-0.835,4.786-1.721,7.003-2.831l0.399-0.211c0.128-0.075,0.237-0.125,0.377-0.217
				c0.241-0.148,0.507-0.34,0.75-0.518c0.497-0.359,0.968-0.742,1.395-1.153c0.43-0.411,0.807-0.858,1.083-1.322
				c0.278-0.466,0.428-0.946,0.399-1.378c-0.02-0.436-0.214-0.844-0.543-1.225c-0.329-0.382-0.778-0.718-1.268-1.01
				c-0.492-0.287-1.031-0.527-1.586-0.733c-0.28-0.101-0.564-0.192-0.847-0.276c-0.284-0.077-0.588-0.154-0.843-0.203
				c-0.629-0.116-1.045-0.723-0.926-1.35c0.117-0.631,0.724-1.045,1.352-0.929c0.053,0.011,0.104,0.021,0.156,0.039L122.662,25.433
				L122.662,25.433z"/>
		</g>
		<g>
			<path fill="#FFFFFF" d="M40.471,61.086c0.552,0.478,0.249,0.972,0.066,1.252c-0.377,0.579-1.357,1.272-2.419,1.533
				c-0.13,0.029-0.244,0.014-0.343-0.049c-0.11-0.067-0.225-0.127-0.362-0.205c-0.137-0.08-0.191-0.17-0.155-0.382
				c0.194-1.116,0.619-2.743,1.014-3.872c-0.121-0.125-0.216-0.204-0.317-0.309c-0.132-0.133-0.132-0.208,0.004-0.315
				c0.453-0.359,1.073-0.655,1.632-0.775c0.551-0.118,1.116-0.027,1.617,0.411c0.479,0.425,0.262,0.917,0.095,1.229
				c-0.198,0.359-0.634,0.833-1.186,1.24C40.233,60.903,40.354,60.985,40.471,61.086z M38.202,62.976
				c0.957-0.424,1.915-1.323,1.64-1.592c-0.131-0.132-0.682,0.028-1.313,0.387C38.408,62.173,38.304,62.57,38.202,62.976z
				 M40.582,58.681c-0.104-0.154-0.722,0.081-1.12,0.342c-0.201,0.497-0.386,1.023-0.573,1.577
				C39.902,60.053,40.802,59.013,40.582,58.681z"/>
		</g>
		<g>
			<path fill="#FFFFFF" d="M45.794,59.133c0.17-0.036,0.291-0.027,0.394,0.06c0.092,0.073,0.22,0.199,0.279,0.279
				c0.083,0.11,0.057,0.185-0.054,0.225c-0.408,0.153-1.005,0.374-1.556,0.65c-0.1,0.369-0.195,0.721-0.278,1.051
				c0.443-0.188,0.85-0.308,1.19-0.38c0.178-0.037,0.323-0.034,0.442,0.052c0.12,0.083,0.254,0.199,0.327,0.302
				c0.098,0.141,0.045,0.212-0.09,0.256c-0.55,0.201-1.382,0.514-1.897,0.801c-0.265,0.15-0.33,0.12-0.472,0.05
				c-0.112-0.053-0.265-0.13-0.347-0.197c-0.131-0.1-0.205-0.169-0.163-0.415c0.174-1.096,0.593-2.836,1.008-4.032
				c-0.065-0.106-0.135-0.235-0.177-0.311c-0.073-0.146-0.032-0.231,0.105-0.303c0.676-0.33,1.664-0.624,2.312-0.761
				c0.219-0.047,0.367-0.027,0.515,0.069c0.117,0.076,0.243,0.228,0.339,0.359c0.071,0.138,0.015,0.191-0.136,0.24
				c-0.445,0.137-1.328,0.452-1.891,0.707c-0.154,0.431-0.317,0.939-0.484,1.474C45.417,59.229,45.641,59.166,45.794,59.133z"/>
		</g>
		<g>
			<path fill="#FFFFFF" d="M53.372,55.183c0.071-0.107,0.159-0.175,0.26-0.052c0.193,0.248,0.235,0.545,0.052,0.936
				c-0.489,1.02-1.35,2.881-1.955,4.675c-0.081,0.228-0.18,0.282-0.346,0.214c-0.239-0.097-0.44-0.175-0.664-0.323
				c-0.225-0.15-0.345-0.203-0.399-0.893c-0.105-1.373-0.001-3.008,0.127-4.015c0.015-0.137,0.067-0.216,0.212-0.159
				c0.174,0.065,0.363,0.205,0.481,0.333c0.119,0.129,0.173,0.271,0.161,0.467c-0.041,0.812-0.103,1.98-0.066,3.004
				C51.777,57.901,52.694,56.23,53.372,55.183z"/>
		</g>
		<g>
			<path fill="#FFFFFF" d="M57.856,56.722c0.171-0.033,0.291-0.022,0.393,0.067c0.09,0.076,0.216,0.204,0.273,0.285
				c0.081,0.112,0.052,0.186-0.059,0.223c-0.41,0.146-1.012,0.354-1.568,0.619c-0.108,0.367-0.21,0.716-0.299,1.044
				c0.446-0.178,0.855-0.289,1.198-0.354c0.179-0.034,0.324-0.028,0.441,0.06c0.118,0.087,0.25,0.204,0.32,0.31
				c0.095,0.143,0.041,0.212-0.095,0.254c-0.554,0.19-1.392,0.484-1.913,0.761c-0.268,0.145-0.332,0.114-0.474,0.04
				c-0.111-0.055-0.261-0.136-0.342-0.204c-0.128-0.103-0.201-0.173-0.155-0.418c0.196-1.092,0.651-2.823,1.091-4.012
				c-0.063-0.106-0.129-0.236-0.169-0.314c-0.07-0.146-0.027-0.23,0.111-0.299c0.682-0.315,1.676-0.59,2.327-0.714
				c0.22-0.042,0.368-0.02,0.514,0.081c0.116,0.078,0.238,0.232,0.331,0.365c0.068,0.14,0.011,0.192-0.141,0.238
				c-0.448,0.128-1.336,0.424-1.905,0.667c-0.163,0.428-0.337,0.934-0.514,1.464C57.477,56.81,57.702,56.751,57.856,56.722z"/>
		</g>
		<g>
			<path fill="#FFFFFF" d="M62.42,58.763c-0.047,0.202-0.164,0.164-0.312,0.091c-0.111-0.056-0.199-0.115-0.315-0.247
				c-0.116-0.13-0.189-0.251-0.145-0.47c0.23-1.052,0.742-2.636,1.204-3.747c-0.162-0.106-0.263-0.196-0.372-0.287
				c-0.128-0.104-0.128-0.195,0.005-0.295c0.512-0.38,1.14-0.63,1.703-0.732c0.595-0.108,1.196,0.044,1.609,0.373
				c0.541,0.424,0.372,0.791,0.212,1.115c-0.296,0.594-1.166,1.552-2.156,2.128c0.394,0.407,0.97,0.885,1.34,1.111
				c0.141,0.084,0.141,0.177,0.054,0.252c-0.095,0.085-0.261,0.189-0.403,0.241c-0.212,0.081-0.281,0.077-0.548-0.051
				c-0.426-0.21-0.982-0.631-1.417-1.03C62.706,57.741,62.549,58.268,62.42,58.763z M65.194,53.786
				c-0.092-0.136-0.705,0.061-1.125,0.297c-0.257,0.577-0.53,1.25-0.787,1.963C64.246,55.466,65.4,54.085,65.194,53.786z"/>
		</g>
		<g>
			<path fill="#FFFFFF" d="M68.905,56.883c-0.137,0.275-0.251,0.531-0.347,0.758c-0.096,0.22-0.163,0.223-0.3,0.111
				c-0.106-0.082-0.166-0.131-0.232-0.22c-0.145-0.152-0.166-0.324-0.048-0.614c0.424-1.041,1.65-3.502,2.458-4.803
				c0.098-0.161,0.18-0.268,0.466-0.176c0.285,0.095,0.35,0.125,0.606,0.248c0.302,0.141,0.261,0.291,0.231,0.507
				c-0.195,1.337-0.355,3.165-0.308,4.343c0.002,0.16-0.052,0.187-0.2,0.161c-0.113-0.021-0.192-0.042-0.367-0.129
				c-0.157-0.081-0.217-0.181-0.237-0.396c-0.01-0.107-0.017-0.242-0.027-0.398C70.07,56.426,69.5,56.626,68.905,56.883z
				 M70.6,55.509c0.012-0.749,0.077-1.628,0.166-2.225c-0.384,0.69-0.903,1.664-1.373,2.588
				C69.839,55.727,70.222,55.609,70.6,55.509z"/>
		</g>
		<g>
			<path fill="#FFFFFF" d="M76.453,54.846c-0.181,0.071-0.286,0.048-0.39-0.02c-0.113-0.072-0.17-0.113-0.26-0.199
				c-0.119-0.105-0.148-0.178,0.003-0.277c0.339-0.234,0.821-0.467,1.178-0.594c0.253-0.093,0.381-0.03,0.519,0.14
				c0.125,0.147,0.218,0.298,0.298,0.471c0.081,0.18,0.103,0.311-0.012,0.531c-0.664,1.245-1.643,1.966-2.688,1.452
				c-0.687-0.338-0.91-0.763-0.838-1.48c0.121-1.13,1.014-3.011,1.948-3.756c0.296-0.234,0.568-0.364,0.958-0.246
				c0.238,0.07,0.549,0.219,0.733,0.363c0.193,0.154,0.235,0.398,0.208,0.639c-0.05,0.495-0.276,1.104-0.466,1.473
				c-0.071,0.13-0.144,0.192-0.283,0.114c-0.122-0.071-0.295-0.201-0.368-0.282c-0.079-0.121-0.108-0.291-0.063-0.477
				c0.06-0.245,0.343-1.007,0.163-1.077c-0.17-0.063-0.837,0.72-1.346,1.89c-0.556,1.287-0.578,2.206-0.299,2.361
				c0.26,0.148,0.908-0.447,1.389-1.184C76.719,54.733,76.546,54.804,76.453,54.846z"/>
		</g>
		<g>
			<path fill="#FFFFFF" d="M82.745,52.335c0.171-0.03,0.291-0.018,0.392,0.073c0.089,0.075,0.213,0.205,0.271,0.287
				c0.08,0.112,0.05,0.185-0.061,0.223c-0.413,0.141-1.017,0.343-1.575,0.603c-0.111,0.366-0.217,0.713-0.31,1.041
				c0.449-0.174,0.859-0.282,1.202-0.344c0.179-0.032,0.324-0.023,0.441,0.065c0.117,0.088,0.248,0.207,0.317,0.312
				c0.093,0.144,0.038,0.213-0.097,0.253c-0.556,0.185-1.397,0.471-1.921,0.741c-0.269,0.143-0.333,0.11-0.473,0.035
				c-0.111-0.056-0.261-0.138-0.341-0.208c-0.128-0.104-0.199-0.174-0.151-0.42c0.208-1.089,0.68-2.815,1.132-3.999
				c-0.062-0.107-0.127-0.238-0.167-0.316c-0.069-0.146-0.024-0.231,0.115-0.298c0.686-0.309,1.682-0.572,2.334-0.689
				c0.22-0.04,0.368-0.016,0.513,0.085c0.115,0.08,0.235,0.235,0.327,0.369c0.067,0.141,0.009,0.192-0.143,0.237
				c-0.449,0.123-1.341,0.409-1.912,0.647c-0.167,0.426-0.346,0.929-0.529,1.458C82.364,52.421,82.59,52.363,82.745,52.335z"/>
		</g>
		<g>
			<path fill="#FFFFFF" d="M86.311,53.243c0.699,0.324,1.328,0.425,1.799,0.329c0.317-0.063,0.416-0.243,0.215-0.44
				c-0.168-0.161-0.965-0.548-1.336-0.837c-0.451-0.348-0.471-0.783-0.313-1.213c0.405-1.088,1.101-1.744,1.599-2.124
				c0.314-0.242,0.618-0.37,0.992-0.235c0.238,0.088,0.559,0.25,0.726,0.411c0.188,0.174,0.212,0.38,0.162,0.636
				c-0.12,0.615-0.419,1.268-0.706,1.731c-0.083,0.136-0.167,0.177-0.294,0.094c-0.118-0.077-0.248-0.221-0.308-0.31
				c-0.087-0.135-0.058-0.284-0.014-0.445c0.109-0.377,0.5-1.327,0.336-1.388c-0.19-0.062-1.084,0.906-1.364,1.613
				c-0.196,0.496-0.014,0.645,0.204,0.803c0.219,0.159,0.693,0.375,0.942,0.562c0.298,0.219,0.514,0.531,0.263,1.005
				c-0.324,0.614-0.798,0.82-1.123,0.887c-0.414,0.084-1.021,0.046-1.571-0.291c-0.251-0.152-0.375-0.347-0.415-0.627
				C86.082,53.239,86.181,53.187,86.311,53.243z"/>
		</g>
		<g>
		</g>
		<g>
			<path fill="#FFFFFF" d="M97.051,52.072c-0.146-0.102-0.179-0.207-0.156-0.421c0.129-1.296,0.661-3.413,1.128-4.676
				c0.065-0.168,0.157-0.19,0.321-0.108c0.147,0.079,0.327,0.189,0.428,0.279c0.133,0.121,0.146,0.207,0.065,0.444
				c-0.425,1.203-1.006,3.25-1.186,4.565c-0.016,0.142-0.09,0.167-0.217,0.107C97.334,52.216,97.187,52.17,97.051,52.072z"/>
		</g>
		<g>
			<path fill="#FFFFFF" d="M101.536,51.236c-0.023,0.136-0.101,0.146-0.223,0.112c-0.157-0.049-0.329-0.151-0.417-0.242
				c-0.066-0.072-0.131-0.169-0.118-0.31c0.091-1.114,0.608-3.423,0.935-4.629c0.061-0.209,0.195-0.219,0.344-0.208
				c0.191,0.017,0.469,0.093,0.722,0.199c0.19,0.08,0.193,0.186,0.205,0.425c0.028,0.623,0.138,1.704,0.264,2.521
				c0.235-1.118,0.679-2.728,1.029-3.584c0.043-0.116,0.124-0.186,0.258-0.065c0.248,0.213,0.328,0.468,0.24,0.854
				c-0.216,0.937-0.662,2.698-0.907,4.161c-0.034,0.186-0.129,0.226-0.313,0.2c-0.202-0.03-0.404-0.094-0.566-0.156
				c-0.171-0.071-0.301-0.199-0.362-0.442c-0.147-0.554-0.308-1.509-0.363-2.238C101.97,48.918,101.659,50.444,101.536,51.236z"/>
		</g>
		<g>
			<path fill="#FFFFFF" d="M107.963,49.382c-0.717-0.22-1.015-0.626-0.991-1.315c0.031-1.081,0.678-2.923,1.485-3.719
				c0.269-0.268,0.515-0.408,0.886-0.331c0.26,0.061,0.524,0.166,0.717,0.277c0.202,0.116,0.258,0.353,0.257,0.589
				c-0.002,0.472-0.167,1.062-0.317,1.435c-0.055,0.129-0.126,0.196-0.259,0.128c-0.104-0.054-0.292-0.149-0.361-0.227
				c-0.094-0.105-0.143-0.286-0.114-0.449c0.043-0.231,0.234-1.023,0.101-1.067c-0.178-0.057-0.716,0.779-1.099,1.939
				c-0.415,1.259-0.321,2.144-0.065,2.245c0.272,0.104,0.919-0.566,1.358-1.434c0.078-0.16,0.169-0.185,0.261-0.087
				c0.112,0.115,0.295,0.31,0.182,0.698c-0.163,0.539-0.551,1.173-0.965,1.326C108.721,49.509,108.361,49.501,107.963,49.382z"/>
		</g>
		<g>
			<path fill="#FFFFFF" d="M113.168,47.08c0.278-0.08,0.515,0.17,0.543,0.555c0.023,0.279-0.115,0.564-0.413,0.633
				c-0.261,0.059-0.503-0.1-0.55-0.404C112.7,47.549,112.89,47.16,113.168,47.08z"/>
		</g>
	</g>
	<g>
	</g>
	<g>
	</g>
	<g>
	</g>
	<g>
	</g>
	<g>
	</g>
	<g>
	</g>
</g>
</svg>
