<?xml version="1.0" encoding="utf-8"?>
<!-- Generator: Adobe Illustrator 16.0.4, SVG Export Plug-In . SVG Version: 6.00 Build 0)  -->
<!DOCTYPE svg PUBLIC "-//W3C//DTD SVG 1.1//EN" "http://www.w3.org/Graphics/SVG/1.1/DTD/svg11.dtd">
<svg version="1.1" id="Layer_1" xmlns="http://www.w3.org/2000/svg" xmlns:xlink="http://www.w3.org/1999/xlink" x="0px" y="0px"
	 width="16px" height="16px" viewBox="0 0 16 16" enable-background="new 0 0 16 16" xml:space="preserve">
<circle fill="#6D6E71" cx="8" cy="8" r="8"/>
<g>
	<path fill-rule="evenodd" clip-rule="evenodd" fill="#FFFFFF" d="M3.25,4.145c3.164,0,6.311,0,9.479,0
		c-0.041,0.044-0.07,0.075-0.1,0.105c-1.277,1.274-2.561,2.543-3.826,3.828c-0.445,0.451-1.205,0.438-1.637,0
		c-0.975-0.989-1.963-1.97-2.945-2.953c-0.293-0.296-0.588-0.59-0.883-0.886C3.312,4.213,3.289,4.186,3.25,4.145z"/>
	<path fill-rule="evenodd" clip-rule="evenodd" fill="#FFFFFF" d="M3.279,11.855c1.062-1.068,2.133-2.145,3.203-3.221
		c0.842,0.924,2.25,0.856,2.998-0.011c1.068,1.087,2.137,2.173,3.178,3.231C9.568,11.855,6.414,11.855,3.279,11.855z"/>
	<path fill-rule="evenodd" clip-rule="evenodd" fill="#FFFFFF" d="M2.646,4.788c1.078,1.073,2.154,2.142,3.221,3.2
		c-1.078,1.076-2.152,2.15-3.221,3.219C2.646,9.078,2.646,6.932,2.646,4.788z"/>
	<path fill-rule="evenodd" clip-rule="evenodd" fill="#FFFFFF" d="M10.139,7.993c1.066-1.065,2.137-2.136,3.215-3.213
		c0,2.148,0,4.294,0,6.425C12.287,10.14,11.215,9.068,10.139,7.993z"/>
</g>
<g>
</g>
<g>
</g>
<g>
</g>
<g>
</g>
<g>
</g>
<g>
</g>
</svg>
