<?xml version="1.0" encoding="utf-8"?>
<!-- Generator: Adobe Illustrator 16.0.4, SVG Export Plug-In . SVG Version: 6.00 Build 0)  -->
<!DOCTYPE svg PUBLIC "-//W3C//DTD SVG 1.1//EN" "http://www.w3.org/Graphics/SVG/1.1/DTD/svg11.dtd">
<svg version="1.1" id="Layer_1" xmlns="http://www.w3.org/2000/svg" xmlns:xlink="http://www.w3.org/1999/xlink" x="0px" y="0px"
	 width="16px" height="16px" viewBox="0 0 16 16" enable-background="new 0 0 16 16" xml:space="preserve">
<circle fill="#6D6E71" cx="8" cy="8" r="8"/>
<path fill="#FFFFFF" d="M7.745,1.716c0.168,0,0.336,0,0.505,0C8.411,1.741,8.573,1.76,8.734,1.794
	c0.537,0.114,1.023,0.341,1.453,0.686c0.581,0.464,0.987,1.05,1.19,1.768c0.068,0.243,0.1,0.496,0.148,0.745
	c0,0.162,0,0.322,0,0.483c-0.032,0.163-0.062,0.328-0.098,0.49c-0.181,0.781-0.447,1.533-0.735,2.279
	c-0.785,2.034-1.703,4.01-2.654,5.97c-0.012,0.023-0.027,0.044-0.045,0.07c-0.013-0.022-0.021-0.033-0.027-0.046
	c-0.869-1.787-1.704-3.59-2.445-5.434C5.16,7.905,4.823,6.995,4.585,6.052C4.45,5.523,4.433,4.996,4.556,4.464
	C4.674,3.95,4.894,3.482,5.223,3.068c0.467-0.591,1.06-1.001,1.784-1.207C7.247,1.794,7.499,1.764,7.745,1.716z M6.437,5.244
	c0,0.864,0.693,1.558,1.559,1.559c0.866,0.002,1.56-0.688,1.562-1.555C9.562,4.38,8.862,3.679,7.994,3.683
	C7.126,3.685,6.436,4.377,6.437,5.244z"/>
<g>
</g>
<g>
</g>
<g>
</g>
<g>
</g>
<g>
</g>
<g>
</g>
</svg>
